<?xml version="1.0" encoding="UTF-8"?>
<!DOCTYPE svg PUBLIC "-//W3C//DTD SVG 1.1//EN" "http://www.w3.org/Graphics/SVG/1.1/DTD/svg11.dtd">
<svg version="1.2" width="215.9mm" height="279.4mm" viewBox="0 0 21590 27940" preserveAspectRatio="xMidYMid" fill-rule="evenodd" clip-path="url(#presentation_clip_path)" stroke-width="28.222" stroke-linejoin="round" xmlns="http://www.w3.org/2000/svg" xmlns:ooo="http://xml.openoffice.org/svg/export" xmlns:xlink="http://www.w3.org/1999/xlink" xml:space="preserve">
 <defs class="ClipPathGroup">
  <clipPath id="presentation_clip_path" clipPathUnits="userSpaceOnUse">
   <rect x="0" y="0" width="21590" height="27940"/>
  </clipPath>
 </defs>
 <defs class="TextShapeIndex">
  <g ooo:slide="id1" ooo:id-list="id3 id4 id5 id6 id7 id8 id9 id10 id11 id12 id13 id14 id15 id16"/>
 </defs>
 <defs class="EmbeddedBulletChars">
  <g id="bullet-char-template(57356)" transform="scale(0.00048828125,-0.00048828125)">
   <path d="M 580,1141 L 1163,571 580,0 -4,571 580,1141 Z"/>
  </g>
  <g id="bullet-char-template(57354)" transform="scale(0.00048828125,-0.00048828125)">
   <path d="M 8,1128 L 1137,1128 1137,0 8,0 8,1128 Z"/>
  </g>
  <g id="bullet-char-template(10146)" transform="scale(0.00048828125,-0.00048828125)">
   <path d="M 174,0 L 602,739 174,1481 1456,739 174,0 Z M 1358,739 L 309,1346 659,739 1358,739 Z"/>
  </g>
  <g id="bullet-char-template(10132)" transform="scale(0.00048828125,-0.00048828125)">
   <path d="M 2015,739 L 1276,0 717,0 1260,543 174,543 174,936 1260,936 717,1481 1274,1481 2015,739 Z"/>
  </g>
  <g id="bullet-char-template(10007)" transform="scale(0.00048828125,-0.00048828125)">
   <path d="M 0,-2 C -7,14 -16,27 -25,37 L 356,567 C 262,823 215,952 215,954 215,979 228,992 255,992 264,992 276,990 289,987 310,991 331,999 354,1012 L 381,999 492,748 772,1049 836,1024 860,1049 C 881,1039 901,1025 922,1006 886,937 835,863 770,784 769,783 710,716 594,584 L 774,223 C 774,196 753,168 711,139 L 727,119 C 717,90 699,76 672,76 641,76 570,178 457,381 L 164,-76 C 142,-110 111,-127 72,-127 30,-127 9,-110 8,-76 1,-67 -2,-52 -2,-32 -2,-23 -1,-13 0,-2 Z"/>
  </g>
  <g id="bullet-char-template(10004)" transform="scale(0.00048828125,-0.00048828125)">
   <path d="M 285,-33 C 182,-33 111,30 74,156 52,228 41,333 41,471 41,549 55,616 82,672 116,743 169,778 240,778 293,778 328,747 346,684 L 369,508 C 377,444 397,411 428,410 L 1163,1116 C 1174,1127 1196,1133 1229,1133 1271,1133 1292,1118 1292,1087 L 1292,965 C 1292,929 1282,901 1262,881 L 442,47 C 390,-6 338,-33 285,-33 Z"/>
  </g>
  <g id="bullet-char-template(9679)" transform="scale(0.00048828125,-0.00048828125)">
   <path d="M 813,0 C 632,0 489,54 383,161 276,268 223,411 223,592 223,773 276,916 383,1023 489,1130 632,1184 813,1184 992,1184 1136,1130 1245,1023 1353,916 1407,772 1407,592 1407,412 1353,268 1245,161 1136,54 992,0 813,0 Z"/>
  </g>
  <g id="bullet-char-template(8226)" transform="scale(0.00048828125,-0.00048828125)">
   <path d="M 346,457 C 273,457 209,483 155,535 101,586 74,649 74,723 74,796 101,859 155,911 209,963 273,989 346,989 419,989 480,963 531,910 582,859 608,796 608,723 608,648 583,586 532,535 482,483 420,457 346,457 Z"/>
  </g>
  <g id="bullet-char-template(8211)" transform="scale(0.00048828125,-0.00048828125)">
   <path d="M -4,459 L 1135,459 1135,606 -4,606 -4,459 Z"/>
  </g>
 </defs>
 <defs class="TextEmbeddedBitmaps"/>
 <g>
  <g id="id2" class="Master_Slide">
   <g id="bg-id2" class="Background"/>
   <g id="bo-id2" class="BackgroundObjects"/>
  </g>
 </g>
 <g class="SlideGroup">
  <g>
   <g id="id1" class="Slide" clip-path="url(#presentation_clip_path)">
    <g class="Page">
     <g class="com.sun.star.drawing.ClosedBezierShape">
      <g id="id3">
       <path fill="rgb(255,255,255)" stroke="none" d="M 4448,1691 C 2987,1691 1847,2148 1815,2668 1815,3930 1805,3564 1815,4035 2236,4035 2657,4035 3077,4035 3090,3564 3077,3194 3077,2668 3077,2417 3718,2163 4448,2163 4662,2163 4591,2163 4662,2163 4662,2458 4662,2360 4662,2458 6338,1927 5780,2104 6338,1927 4662,1381 5221,1563 4662,1381 4662,1691 4662,1587 4662,1691 4591,1691 4519,1691 4448,1691 Z M 238,1381 L 238,1381 Z M 6338,3551 L 6338,3551 Z"/>
       <path fill="none" stroke="rgb(0,0,0)" stroke-width="254" d="M 4448,1691 C 2987,1691 1847,2148 1815,2668 1815,3930 1805,3564 1815,4035 2236,4035 2657,4035 3077,4035 3090,3564 3077,3194 3077,2668 3077,2417 3718,2163 4448,2163 4662,2163 4591,2163 4662,2163 4662,2458 4662,2360 4662,2458 6338,1927 5780,2104 6338,1927 4662,1381 5221,1563 4662,1381 4662,1691 4662,1587 4662,1691 4591,1691 4519,1691 4448,1691 Z"/>
      </g>
     </g>
     <g class="com.sun.star.drawing.ClosedBezierShape">
      <g id="id4">
       <path fill="rgb(255,255,255)" stroke="none" d="M 9805,1691 C 11266,1691 12406,2148 12437,2668 12437,3930 12448,3564 12437,4035 12017,4035 11596,4035 11175,4035 11163,3564 11175,3194 11175,2668 11175,2417 10535,2163 9805,2163 9590,2163 9662,2163 9590,2163 9590,2458 9590,2360 9590,2458 7914,1927 8473,2104 7914,1927 9590,1381 9031,1563 9590,1381 9590,1691 9590,1587 9590,1691 9662,1691 9734,1691 9805,1691 Z M 14015,1381 L 14015,1381 Z M 7914,3551 L 7914,3551 Z"/>
       <path fill="none" stroke="rgb(0,0,0)" stroke-width="254" d="M 9805,1691 C 11266,1691 12406,2148 12437,2668 12437,3930 12448,3564 12437,4035 12017,4035 11596,4035 11175,4035 11163,3564 11175,3194 11175,2668 11175,2417 10535,2163 9805,2163 9590,2163 9662,2163 9590,2163 9590,2458 9590,2360 9590,2458 7914,1927 8473,2104 7914,1927 9590,1381 9031,1563 9590,1381 9590,1691 9590,1587 9590,1691 9662,1691 9734,1691 9805,1691 Z"/>
      </g>
     </g>
     <g class="com.sun.star.drawing.CustomShape">
      <g id="id5">
       <path fill="rgb(255,255,255)" stroke="none" d="M 1500,6190 L 5286,6190 5286,5506 6549,6874 5286,8242 5286,7558 1500,7558 1500,6190 Z M 1500,5506 L 1500,5506 Z M 6549,8242 L 6549,8242 Z"/>
       <path fill="none" stroke="rgb(0,0,0)" stroke-width="254" d="M 1500,6190 L 5286,6190 5286,5506 6549,6874 5286,8242 5286,7558 1500,7558 1500,6190 Z"/>
      </g>
     </g>
     <g class="com.sun.star.drawing.ClosedBezierShape">
      <g id="id6">
       <path fill="rgb(255,255,255)" stroke="none" d="M 4449,1692 C 2988,1692 1848,2149 1816,2669 1816,3931 1806,3565 1816,4036 2237,4036 2658,4036 3078,4036 3091,3565 3078,3194 3078,2669 3078,2418 3718,2164 4449,2164 4663,2164 4592,2164 4663,2164 4663,2459 4663,2361 4663,2459 6339,1928 5780,2105 6339,1928 4663,1382 5222,1564 4663,1382 4663,1692 4663,1588 4663,1692 4592,1692 4520,1692 4449,1692 Z M 239,1382 L 239,1382 Z M 6339,3551 L 6339,3551 Z"/>
       <path fill="none" stroke="rgb(0,0,0)" stroke-width="254" d="M 4449,1692 C 2988,1692 1848,2149 1816,2669 1816,3931 1806,3565 1816,4036 2237,4036 2658,4036 3078,4036 3091,3565 3078,3194 3078,2669 3078,2418 3718,2164 4449,2164 4663,2164 4592,2164 4663,2164 4663,2459 4663,2361 4663,2459 6339,1928 5780,2105 6339,1928 4663,1382 5222,1564 4663,1382 4663,1692 4663,1588 4663,1692 4592,1692 4520,1692 4449,1692 Z"/>
      </g>
     </g>
     <g class="com.sun.star.drawing.CustomShape">
      <g id="id7">
       <path fill="rgb(255,255,255)" stroke="none" d="M 13068,6190 L 9282,6190 9282,5506 8019,6874 9282,8242 9282,7558 13068,7558 13068,6190 Z M 13068,5506 L 13068,5506 Z M 8019,8242 L 8019,8242 Z"/>
       <path fill="none" stroke="rgb(0,0,0)" stroke-width="254" d="M 13068,6190 L 9282,6190 9282,5506 8019,6874 9282,8242 9282,7558 13068,7558 13068,6190 Z"/>
      </g>
     </g>
     <g class="com.sun.star.drawing.CustomShape">
      <g id="id8">
       <path fill="rgb(255,255,255)" stroke="none" d="M 2551,13710 L 2551,10239 1710,10239 3393,9082 5076,10239 4235,10239 4235,13710 2551,13710 Z M 1710,9082 L 1710,9082 Z M 5077,13710 L 5077,13710 Z"/>
       <path fill="none" stroke="rgb(0,0,0)" stroke-width="254" d="M 2551,13710 L 2551,10239 1710,10239 3393,9082 5076,10239 4235,10239 4235,13710 2551,13710 Z"/>
      </g>
     </g>
     <g class="com.sun.star.drawing.CustomShape">
      <g id="id9">
       <path fill="rgb(255,255,255)" stroke="none" d="M 10228,9503 L 10228,12974 9387,12974 11070,14131 12753,12974 11912,12974 11912,9503 10228,9503 Z M 9387,14131 L 9387,14131 Z M 12754,9503 L 12754,9503 Z"/>
       <path fill="none" stroke="rgb(0,0,0)" stroke-width="254" d="M 10228,9503 L 10228,12974 9387,12974 11070,14131 12753,12974 11912,12974 11912,9503 10228,9503 Z"/>
      </g>
     </g>
     <g class="com.sun.star.drawing.PolyPolygonShape">
      <g id="id10">
       <path fill="rgb(255,255,255)" stroke="none" d="M 1815,18127 L 2552,16155 1710,16155 3393,15497 5076,16155 4234,16155 5076,18127 1815,18127 Z M 1710,15497 L 1710,15497 Z M 5076,18127 L 5076,18127 Z"/>
       <path fill="none" stroke="rgb(0,0,0)" stroke-width="254" d="M 1815,18127 L 2552,16155 1710,16155 3393,15497 5076,16155 4234,16155 5076,18127 1815,18127 Z"/>
      </g>
     </g>
     <g class="com.sun.star.drawing.PolyPolygonShape">
      <g id="id11">
       <path fill="rgb(255,255,255)" stroke="none" d="M 10229,15708 L 9703,17707 8125,17707 10860,18969 13279,17707 11806,17707 11386,15708 10229,15708 Z M 9072,18338 L 9072,18338 Z M 11491,15603 L 11491,15603 Z"/>
       <path fill="none" stroke="rgb(0,0,0)" stroke-width="254" d="M 10229,15708 L 9703,17707 8125,17707 10860,18969 13279,17707 11806,17707 11386,15708 10229,15708 Z"/>
      </g>
     </g>
     <g class="com.sun.star.drawing.CustomShape">
      <g id="id12">
       <path fill="rgb(255,255,255)" stroke="none" d="M 1229,23912 L 4145,20996 3662,20513 5600,20508 5596,22447 5112,21963 2196,24879 1229,23912 Z M 746,23429 L 746,23429 Z M 6568,21475 L 6568,21475 Z"/>
       <path fill="none" stroke="rgb(0,0,0)" stroke-width="254" d="M 1229,23912 L 4145,20996 3662,20513 5600,20508 5596,22447 5112,21963 2196,24879 1229,23912 Z"/>
      </g>
     </g>
     <g class="com.sun.star.drawing.CustomShape">
      <g id="id13">
       <path fill="rgb(255,255,255)" stroke="none" d="M 11800,21246 L 8884,24162 9367,24645 7428,24650 7432,22711 7916,23195 10832,20279 11800,21246 Z M 12283,21728 L 12283,21728 Z M 6460,23684 L 6460,23684 Z"/>
       <path fill="none" stroke="rgb(0,0,0)" stroke-width="254" d="M 11800,21246 L 8884,24162 9367,24645 7428,24650 7432,22711 7916,23195 10832,20279 11800,21246 Z"/>
      </g>
     </g>
     <g class="com.sun.star.drawing.CustomShape">
      <g id="id14">
       <path fill="rgb(255,255,255)" stroke="none" d="M 14056,21881 L 16972,24797 16489,25280 18427,25285 18423,23346 17939,23830 15023,20914 14056,21881 Z M 13573,22364 L 13573,22364 Z M 19395,24318 L 19395,24318 Z"/>
       <path fill="none" stroke="rgb(0,0,0)" stroke-width="254" d="M 14056,21881 L 16972,24797 16489,25280 18427,25285 18423,23346 17939,23830 15023,20914 14056,21881 Z"/>
      </g>
     </g>
     <g class="com.sun.star.drawing.CustomShape">
      <g id="id15">
       <path fill="rgb(255,255,255)" stroke="none" d="M 19674,18092 L 16758,15176 17241,14693 15302,14688 15306,16627 15790,16143 18706,19059 19674,18092 Z M 20157,17610 L 20157,17610 Z M 14334,15654 L 14334,15654 Z"/>
       <path fill="none" stroke="rgb(0,0,0)" stroke-width="254" d="M 19674,18092 L 16758,15176 17241,14693 15302,14688 15306,16627 15790,16143 18706,19059 19674,18092 Z"/>
      </g>
     </g>
     <g class="com.sun.star.drawing.ClosedBezierShape">
      <g id="id16">
       <path fill="rgb(0,0,0)" stroke="none" d="M 16112,8366 C 16976,8366 17636,9025 17636,9889 17636,10753 16976,11413 16112,11413 15248,11413 14589,10753 14589,9889 14589,9025 15248,8366 16112,8366 Z M 16112,8366 C 16976,8366 17636,9025 17636,9889 17636,10753 16976,11413 16112,11413 15248,11413 14589,10753 14589,9889 14589,9025 15248,8366 16112,8366 Z M 14589,8366 L 14589,8366 Z M 17638,11415 L 17638,11415 Z M 19161,13065 L 17129,10906 19161,13065 Z M 16118,9084 L 16134,9084 16134,9909 16959,9909 16959,9910 16134,9910 16134,10736 16118,10736 16118,9910 15293,9910 15293,9909 16118,9909 16118,9084 Z M 15293,9084 L 15293,9084 Z M 16960,10736 L 16960,10736 Z"/>
       <path fill="none" stroke="rgb(0,0,0)" stroke-width="356" d="M 16112,8366 C 16976,8366 17636,9025 17636,9889 17636,10753 16976,11413 16112,11413 15248,11413 14589,10753 14589,9889 14589,9025 15248,8366 16112,8366 Z"/>
       <path fill="none" stroke="rgb(0,0,0)" stroke-width="356" d="M 16112,8366 C 16976,8366 17636,9025 17636,9889 17636,10753 16976,11413 16112,11413 15248,11413 14589,10753 14589,9889 14589,9025 15248,8366 16112,8366 Z"/>
       <path fill="none" stroke="rgb(0,0,0)" stroke-width="356" d="M 19161,13065 L 17129,10906 19161,13065 Z"/>
       <path fill="none" stroke="rgb(0,0,0)" stroke-width="356" d="M 16118,9084 L 16134,9084 16134,9909 16959,9909 16959,9910 16134,9910 16134,10736 16118,10736 16118,9910 15293,9910 15293,9909 16118,9909 16118,9084 Z"/>
      </g>
     </g>
    </g>
   </g>
  </g>
 </g>
</svg>